# xmcd
#
# Track frame offsets:
#	150
#	15202
#	33585
#	47792
#	62060
#	79337
#	98655
#	112115
#	127545
#	141490
#	157190
#
# Disc length: 2306 seconds
# Revision: 4
# Processed by: cddbd v1.5.2PL0 Copyright (c) Steve Scherf et al.
# Submitted via: dBpowerAMP V12.0
#
DISCID=8e09000b
DTITLE=Paul Overstreet - Sowin' Love
DYEAR=1989
DGENRE=Country
TTITLE0=Love Helps Those
TTITLE1=All The Fun
TTITLE2=Call The Preacher
TTITLE3=Richest Man On Earth
TTITLE4=Sowin' Love
TTITLE5=Love Never Sleeps
TTITLE6=Dig Another Well
TTITLE7=Seein' My Father In Me
TTITLE8=What God Has Joined Together
TTITLE9=Homemaker
TTITLE10='Neath The Light Of Your Love
EXTD=
EXTT0=
EXTT1=
EXTT2=
EXTT3=
EXTT4=
EXTT5=
EXTT6=
EXTT7=
EXTT8=
EXTT9=
EXTT10=
PLAYORDER=
